<svg width="54" height="54" viewBox="0 0 54 54" fill="none" xmlns="http://www.w3.org/2000/svg">
<g clip-path="url(#clip0_1_100)">
<path fill-rule="evenodd" clip-rule="evenodd" d="M21.2222 26.2592C21.2222 23.4773 23.4774 21.2221 26.2593 21.2221C29.0412 21.2221 31.2963 23.4773 31.2963 26.2592C31.2963 27.6124 30.7626 28.841 29.8942 29.7461C29.8671 29.7675 29.841 29.7907 29.8159 29.8158C29.7909 29.8409 29.7677 29.867 29.7462 29.8941C28.8412 30.7625 27.6126 31.2962 26.2593 31.2962C23.4774 31.2962 21.2222 29.041 21.2222 26.2592ZM30.4086 31.6656C29.2595 32.5489 27.8207 33.0739 26.2593 33.0739C22.4956 33.0739 19.4445 30.0228 19.4445 26.2592C19.4445 22.4954 22.4956 19.4443 26.2593 19.4443C30.0229 19.4443 33.0741 22.4954 33.0741 26.2592C33.0741 27.8206 32.549 29.2594 31.6657 30.4085L34.2952 33.038C34.6423 33.3851 34.6423 33.948 34.2952 34.2951C33.9481 34.6422 33.3853 34.6422 33.0381 34.2951L30.4086 31.6656Z" fill="#40494D"/>
</g>
<defs>
<clipPath id="clip0_1_100">
<rect width="16" height="16" fill="white" transform="translate(19 19)"/>
</clipPath>
</defs>
</svg>
